<?xml version="1.0" encoding="UTF-8" standalone="no"?>
<svg xmlns:dc="http://purl.org/dc/elements/1.1/" xmlns:cc="http://creativecommons.org/ns#" xmlns:rdf="http://www.w3.org/1999/02/22-rdf-syntax-ns#" xmlns:svg="http://www.w3.org/2000/svg" xmlns="http://www.w3.org/2000/svg" xmlns:sodipodi="http://sodipodi.sourceforge.net/DTD/sodipodi-0.dtd" xmlns:inkscape="http://www.inkscape.org/namespaces/inkscape" width="640" height="1081" viewBox="0 0 450 760" version="1.1" id="svg8" inkscape:version="0.92.4 (5da689c313, 2019-01-14)" sodipodi:docname="KY-001.svg" inkscape:export-filename="C:\Users\Entwicklung5.SIMACGMBH\Desktop\SEN-KIT02\Abbildungen Fertig\KY-001\KY-001.png" inkscape:export-xdpi="93" inkscape:export-ydpi="93">
  <defs id="defs2">
    <inkscape:perspective sodipodi:type="inkscape:persp3d" inkscape:vp_x="0 : 148.5 : 1" inkscape:vp_y="0 : 999.99997 : 0" inkscape:vp_z="210.00001 : 148.5 : 1" inkscape:persp3d-origin="105 : 98.999998 : 1" id="perspective876"/>
  </defs>
  <sodipodi:namedview id="base" pagecolor="#ffffff" bordercolor="#666666" borderopacity="1.0" inkscape:pageopacity="0.0" inkscape:pageshadow="2" inkscape:zoom="0.24748737" inkscape:cx="-604.97056" inkscape:cy="1965.7184" inkscape:document-units="mm" inkscape:current-layer="layer1" showgrid="false" inkscape:window-width="1920" inkscape:window-height="1017" inkscape:window-x="-8" inkscape:window-y="-8" inkscape:window-maximized="1" width="500mm" showguides="true" inkscape:lockguides="true"/>
  <metadata id="metadata5">
    <rdf:RDF>
      <cc:Work rdf:about="">
        <dc:format>image/svg+xml</dc:format>
        <dc:type rdf:resource="http://purl.org/dc/dcmitype/StillImage"/>
        <dc:title/>
      </cc:Work>
    </rdf:RDF>
  </metadata>
  <g inkscape:label="Ebene 1" inkscape:groupmode="layer" id="layer1" transform="translate(0.31582593,462.81107)">
    <rect style="opacity:1;fill:#000000;fill-opacity:1;stroke:#000000;stroke-width:0;stroke-miterlimit:4;stroke-dasharray:none;stroke-opacity:1" id="rect815" width="450.50391" height="605.42029" x="-0.31582481" y="-454.28156"/>
    <text xml:space="preserve" style="font-style:normal;font-variant:normal;font-weight:normal;font-stretch:normal;font-size:4.23333311px;line-height:1.25;font-family:Calibri;-inkscape-font-specification:'Calibri, Normal';font-variant-ligatures:normal;font-variant-caps:normal;font-variant-numeric:normal;font-feature-settings:normal;text-align:start;letter-spacing:0px;word-spacing:0px;writing-mode:lr-tb;text-anchor:start;fill:#ffffff;fill-opacity:1;stroke:none;stroke-width:0.26458332" x="61.988091" y="187.916" id="text819"><tspan sodipodi:role="line" id="tspan817" x="61.988091" y="191.62016" style="fill:#ffffff;fill-opacity:1;stroke-width:0.26458332"/></text>
    <rect style="opacity:1;fill:#ffffff;fill-opacity:1;stroke:#000000;stroke-width:0;stroke-miterlimit:4;stroke-dasharray:none;stroke-opacity:1" id="rect821" width="234.39525" height="80.684937" x="106.20703" y="52.588348" ry="0"/>
    <rect style="opacity:1;fill:#1a1a1a;fill-opacity:1;stroke:#000000;stroke-width:0;stroke-miterlimit:4;stroke-dasharray:none;stroke-opacity:1" id="rect825" width="76.666504" height="70.899185" x="106.73194" y="57.151886" ry="14.842078"/>
    <rect style="opacity:1;fill:#ffffff;fill-opacity:1;stroke:#000000;stroke-width:0;stroke-miterlimit:4;stroke-dasharray:none;stroke-opacity:1" id="rect831" width="320.70575" height="80.684937" x="63.011227" y="-115.85717" ry="0"/>
    <rect ry="0" y="-200.08015" x="63.011227" height="80.684937" width="320.70575" id="rect833" style="opacity:1;fill:#ffffff;fill-opacity:1;stroke:#000000;stroke-width:0;stroke-miterlimit:4;stroke-dasharray:none;stroke-opacity:1"/>
    <rect ry="0" y="-284.30374" x="63.011227" height="80.684937" width="320.70575" id="rect837" style="opacity:1;fill:#ffffff;fill-opacity:1;stroke:#000000;stroke-width:0;stroke-miterlimit:4;stroke-dasharray:none;stroke-opacity:1"/>
    <rect y="57.151886" x="263.30661" height="70.899185" width="76.666504" id="rect872" style="opacity:1;fill:#1a1a1a;fill-opacity:1;stroke:#000000;stroke-width:0;stroke-miterlimit:4;stroke-dasharray:none;stroke-opacity:1" ry="14.842078"/>
    <rect y="57.151886" x="185.01929" height="70.899185" width="76.666504" id="rect874" style="opacity:1;fill:#1a1a1a;fill-opacity:1;stroke:#000000;stroke-width:0;stroke-miterlimit:4;stroke-dasharray:none;stroke-opacity:1" ry="12.930591"/>
    <rect style="opacity:0.98999999;fill:#000000;fill-opacity:1;stroke:#ffffff;stroke-width:0;stroke-linejoin:round;stroke-miterlimit:4;stroke-dasharray:none;stroke-opacity:1;paint-order:normal" id="rect892" width="313.92862" height="74.484474" x="67.412025" y="-113.41673"/>
    <rect y="-113.41673" x="67.412033" height="74.484467" width="93.654411" id="rect836" style="opacity:1;fill:#cccccc;fill-opacity:1;stroke:#000000;stroke-width:0;stroke-miterlimit:4;stroke-dasharray:none;stroke-opacity:1" ry="37.242233"/>
    <rect style="opacity:1;fill:#cccccc;fill-opacity:1;stroke:#000000;stroke-width:0;stroke-miterlimit:4;stroke-dasharray:none;stroke-opacity:1" id="rect850" width="93.654411" height="74.484467" x="167.25677" y="-113.41673" ry="37.242233" rx="0"/>
    <rect style="opacity:1;fill:#cccccc;fill-opacity:1;stroke:#000000;stroke-width:0;stroke-miterlimit:4;stroke-dasharray:none;stroke-opacity:1" id="rect848" width="103.37954" height="68.854713" x="275.69196" y="-110.653"/>
    <rect style="opacity:0.98999999;fill:#000000;fill-opacity:1;stroke:#ffffff;stroke-width:0;stroke-linejoin:round;stroke-miterlimit:4;stroke-dasharray:none;stroke-opacity:1;paint-order:normal" id="rect892-7" width="313.92862" height="74.484474" x="66.415024" y="-197.21413"/>
    <rect style="opacity:0.98999999;fill:#000000;fill-opacity:1;stroke:#ffffff;stroke-width:0;stroke-linejoin:round;stroke-miterlimit:4;stroke-dasharray:none;stroke-opacity:1;paint-order:normal" id="rect892-72" width="313.92862" height="74.484474" x="66.345619" y="-280.92276"/>
    <rect y="-197.09096" x="66.993958" height="74.484467" width="93.654411" id="rect836-7" style="opacity:1;fill:#cccccc;fill-opacity:1;stroke:#000000;stroke-width:0;stroke-miterlimit:4;stroke-dasharray:none;stroke-opacity:1" ry="37.242233"/>
    <rect y="-197.09096" x="166.8387" height="74.484467" width="93.654411" id="rect836-6" style="opacity:1;fill:#cccccc;fill-opacity:1;stroke:#000000;stroke-width:0;stroke-miterlimit:4;stroke-dasharray:none;stroke-opacity:1" ry="37.242233"/>
    <rect ry="37.242233" style="opacity:1;fill:#cccccc;fill-opacity:1;stroke:#000000;stroke-width:0;stroke-miterlimit:4;stroke-dasharray:none;stroke-opacity:1" id="rect939" width="93.654411" height="74.484467" x="166.8387" y="-281.6391"/>
    <rect y="-281.6391" x="65.859344" height="74.484467" width="93.654411" id="rect941" style="opacity:1;fill:#cccccc;fill-opacity:1;stroke:#000000;stroke-width:0;stroke-miterlimit:4;stroke-dasharray:none;stroke-opacity:1" ry="37.242233"/>
    <rect y="-193.76732" x="275.69196" height="68.854713" width="103.37954" id="rect943" style="opacity:1;fill:#cccccc;fill-opacity:1;stroke:#000000;stroke-width:0;stroke-miterlimit:4;stroke-dasharray:none;stroke-opacity:1"/>
    <rect style="opacity:1;fill:#cccccc;fill-opacity:1;stroke:#000000;stroke-width:0;stroke-miterlimit:4;stroke-dasharray:none;stroke-opacity:1" id="rect945" width="103.37954" height="68.854713" x="275.69196" y="-278.31546"/>
    <rect style="opacity:0.98999999;fill:#808080;fill-opacity:1;stroke:#ffffff;stroke-width:0;stroke-linejoin:round;stroke-miterlimit:4;stroke-dasharray:none;stroke-opacity:1;paint-order:normal" id="rect947" width="8.5094872" height="147.90898" x="140.72737" y="95.742142"/>
    <rect y="95.742142" x="219.46759" height="147.90898" width="8.5094872" id="rect949" style="opacity:0.98999999;fill:#808080;fill-opacity:1;stroke:#ffffff;stroke-width:0;stroke-linejoin:round;stroke-miterlimit:4;stroke-dasharray:none;stroke-opacity:1;paint-order:normal"/>
    <rect style="opacity:0.98999999;fill:#808080;fill-opacity:1;stroke:#ffffff;stroke-width:0;stroke-linejoin:round;stroke-miterlimit:4;stroke-dasharray:none;stroke-opacity:1;paint-order:normal" id="rect951" width="8.5094872" height="147.90898" x="297.30167" y="95.742142"/>
    <text xml:space="preserve" style="font-style:normal;font-variant:normal;font-weight:normal;font-stretch:normal;font-size:11.28888893px;line-height:1.25;font-family:'Proxy 1';-inkscape-font-specification:'Proxy 1, ';font-variant-ligatures:normal;font-variant-caps:normal;font-variant-numeric:normal;font-feature-settings:normal;text-align:start;letter-spacing:0px;word-spacing:0px;writing-mode:lr-tb;text-anchor:start;fill:#000000;fill-opacity:1;stroke:none;stroke-width:0.26458332" x="-482.47003" y="-235.75165" id="text959"><tspan sodipodi:role="line" id="tspan957" x="-482.47003" y="-225.35777" style="fill:#000000;stroke-width:0.26458332"/></text>
    <text xml:space="preserve" style="font-style:normal;font-variant:normal;font-weight:normal;font-stretch:normal;font-size:11.28888893px;line-height:1.25;font-family:'Proxy 1';-inkscape-font-specification:'Proxy 1, ';font-variant-ligatures:normal;font-variant-caps:normal;font-variant-numeric:normal;font-feature-settings:normal;text-align:start;letter-spacing:0px;word-spacing:0px;writing-mode:lr-tb;text-anchor:start;fill:#ffffff;fill-opacity:1;stroke:none;stroke-width:0.26458332" x="49.365498" y="216.33662" id="text963"><tspan sodipodi:role="line" id="tspan961" x="49.365498" y="226.7305" style="fill:#ffffff;stroke-width:0.26458332"/></text>
    <text xml:space="preserve" style="font-style:normal;font-variant:normal;font-weight:normal;font-stretch:normal;font-size:11.28888893px;line-height:1.25;font-family:'Proxy 1';-inkscape-font-specification:'Proxy 1, ';font-variant-ligatures:normal;font-variant-caps:normal;font-variant-numeric:normal;font-feature-settings:normal;text-align:start;letter-spacing:0px;word-spacing:0px;writing-mode:lr-tb;text-anchor:start;fill:#00ff00;fill-opacity:1;stroke:none;stroke-width:0.26458332" x="124.98328" y="191.5067" id="text967"><tspan sodipodi:role="line" id="tspan965" x="124.98328" y="201.90057" style="fill:#00ff00;fill-opacity:1;stroke-width:0.26458332"/></text>
    <flowRoot xml:space="preserve" id="flowRoot969" style="font-style:normal;font-variant:normal;font-weight:normal;font-stretch:normal;font-size:42.66666794px;line-height:1.25;font-family:'Proxy 1';-inkscape-font-specification:'Proxy 1, ';font-variant-ligatures:normal;font-variant-caps:normal;font-variant-numeric:normal;font-feature-settings:normal;text-align:start;letter-spacing:0px;word-spacing:0px;writing-mode:lr-tb;text-anchor:start;fill:#000000;fill-opacity:1;stroke:none" transform="translate(0,0.52900899)"><flowRegion id="flowRegion971"><rect id="rect973" width="373.57144" height="181.42857" x="249.28572" y="630.71198"/></flowRegion><flowPara id="flowPara975"/></flowRoot>    <ellipse style="opacity:0.98999999;fill:#cccccc;fill-opacity:1;stroke:#ffffff;stroke-width:0;stroke-linejoin:round;stroke-miterlimit:4;stroke-dasharray:none;stroke-opacity:1;paint-order:normal" id="path1456" cx="62.781063" cy="-326.02936" rx="41.096889" ry="40.209846"/>
    <ellipse ry="40.209846" rx="41.096889" cy="-326.02936" cx="382.78107" id="ellipse1458" style="opacity:0.98999999;fill:#cccccc;fill-opacity:1;stroke:#ffffff;stroke-width:0;stroke-linejoin:round;stroke-miterlimit:4;stroke-dasharray:none;stroke-opacity:1;paint-order:normal"/>
    <ellipse style="opacity:0.98999999;fill:#ffffff;fill-opacity:1;stroke:#ffffff;stroke-width:0;stroke-linejoin:round;stroke-miterlimit:4;stroke-dasharray:none;stroke-opacity:1;paint-order:normal" id="path1460" cx="62.725842" cy="-326.10522" rx="37.041668" ry="36.285713"/>
    <ellipse ry="36.285713" rx="37.041668" cy="-326.10522" cx="382.72583" id="ellipse1464" style="opacity:0.98999999;fill:#ffffff;fill-opacity:1;stroke:#ffffff;stroke-width:0;stroke-linejoin:round;stroke-miterlimit:4;stroke-dasharray:none;stroke-opacity:1;paint-order:normal"/>
    <flowRoot xml:space="preserve" id="flowRoot1466" style="font-style:normal;font-variant:normal;font-weight:normal;font-stretch:normal;font-size:42.66666794px;line-height:1.25;font-family:Calibri;-inkscape-font-specification:Calibri;font-variant-ligatures:normal;font-variant-caps:normal;font-variant-numeric:normal;font-feature-settings:normal;text-align:start;letter-spacing:0px;word-spacing:0px;writing-mode:lr-tb;text-anchor:start;fill:#ffffff;fill-opacity:1;stroke:none" transform="translate(0,0.52900899)"><flowRegion id="flowRegion1468" style="font-style:normal;font-variant:normal;font-weight:normal;font-stretch:normal;font-family:Calibri;-inkscape-font-specification:Calibri;fill:#ffffff;fill-opacity:1"><rect id="rect1470" width="414.1825" height="372.47485" x="1288.5094" y="1923.5425" style="font-style:normal;font-variant:normal;font-weight:normal;font-stretch:normal;font-family:Calibri;-inkscape-font-specification:Calibri;fill:#ffffff;fill-opacity:1"/></flowRegion><flowPara id="flowPara1472"/></flowRoot>    <circle r="35" style="opacity:0.98999999;fill:#ffffff;fill-opacity:1;stroke:#ffffff;stroke-width:0;stroke-linejoin:round;stroke-miterlimit:4;stroke-dasharray:none;stroke-opacity:1;paint-order:normal" id="circle1502" cx="113.15084" cy="-159.72566"/>
    <circle cy="-76.117233" cx="113.68002" id="circle1504" style="opacity:0.98999999;fill:#ffffff;fill-opacity:1;stroke:#ffffff;stroke-width:0;stroke-linejoin:round;stroke-miterlimit:4;stroke-dasharray:none;stroke-opacity:1;paint-order:normal" r="35"/>
    <circle cy="-160.25487" cx="213.1622" id="circle1508" style="opacity:0.98999999;fill:#ffffff;fill-opacity:1;stroke:#ffffff;stroke-width:0;stroke-linejoin:round;stroke-miterlimit:4;stroke-dasharray:none;stroke-opacity:1;paint-order:normal" r="35"/>
    <circle r="35" style="opacity:0.98999999;fill:#ffffff;fill-opacity:1;stroke:#ffffff;stroke-width:0;stroke-linejoin:round;stroke-miterlimit:4;stroke-dasharray:none;stroke-opacity:1;paint-order:normal" id="circle1510" cx="213.1622" cy="-76.117233"/>
    <circle r="35" style="opacity:0.98999999;fill:#ffffff;fill-opacity:1;stroke:#ffffff;stroke-width:0;stroke-linejoin:round;stroke-miterlimit:4;stroke-dasharray:none;stroke-opacity:1;paint-order:normal" id="circle1514" cx="327.99191" cy="-76.117233"/>
    <circle cy="-159.72563" cx="327.99191" id="circle1516" style="opacity:0.98999999;fill:#ffffff;fill-opacity:1;stroke:#ffffff;stroke-width:0;stroke-linejoin:round;stroke-miterlimit:4;stroke-dasharray:none;stroke-opacity:1;paint-order:normal" r="35"/>
    <flowRoot xml:space="preserve" id="flowRoot1529" style="font-style:normal;font-variant:normal;font-weight:normal;font-stretch:normal;font-size:266.66665649px;line-height:1.25;font-family:'Proxy 1';-inkscape-font-specification:'Proxy 1, ';font-variant-ligatures:normal;font-variant-caps:normal;font-variant-numeric:normal;font-feature-settings:normal;text-align:start;letter-spacing:0px;word-spacing:0px;writing-mode:lr-tb;text-anchor:start;fill:#000000;fill-opacity:1;stroke:none" transform="translate(0,0.52900899)"><flowRegion id="flowRegion1531" style="font-size:266.66665649px"><rect id="rect1533" width="2157.6858" height="2311.229" x="-2691.0464" y="-332.2605" style="font-size:266.66665649px"/></flowRegion><flowPara id="flowPara1535"/></flowRoot>    <rect y="-249.75764" x="209.58279" height="22.420885" width="8.5094881" id="rect74" style="opacity:0.98999999;fill:#808080;fill-opacity:1;stroke:#ffffff;stroke-width:0;stroke-linejoin:round;stroke-miterlimit:4;stroke-dasharray:none;stroke-opacity:1;paint-order:normal"/>
    <rect style="opacity:0.98999999;fill:#808080;fill-opacity:1;stroke:#ffffff;stroke-width:0;stroke-linejoin:round;stroke-miterlimit:4;stroke-dasharray:none;stroke-opacity:1;paint-order:normal" id="rect82" width="8.5094872" height="147.90898" x="19.964073" y="-423.69955" transform="rotate(50.059609)"/>
    <rect transform="matrix(-0.64199029,0.76671277,0.76671277,0.64199029,0,0)" y="-79.722069" x="-268.06015" height="147.90898" width="8.5094872" id="rect84" style="opacity:0.98999999;fill:#808080;fill-opacity:1;stroke:#ffffff;stroke-width:0;stroke-linejoin:round;stroke-miterlimit:4;stroke-dasharray:none;stroke-opacity:1;paint-order:normal"/>
    <path style="opacity:1;fill:#333333;fill-opacity:1;stroke:#ffffff;stroke-width:0;stroke-linejoin:round;stroke-miterlimit:4;stroke-dasharray:none;stroke-opacity:1;paint-order:normal" d="M 377.95312 887.26758 L 377.95312 1119.8711 L 377.95312 1122.041 L 378.00586 1122.041 A 472.44094 453.54328 0 0 0 614.17383 1512.6504 A 472.44094 453.54328 0 0 0 1086.6133 1512.6504 A 472.44094 453.54328 0 0 0 1322.7207 1122.041 L 1322.834 1122.041 L 1322.834 1119.8711 L 1322.834 887.26758 L 377.95312 887.26758 z " transform="matrix(0.26458333,0,0,0.26458333,-0.31582593,-462.81107)" id="rect1512"/>
    <path style="fill:#ffffff;stroke-width:0.16109252" d="m 127.72657,-406.58503 c 2.7857,-0.053 3.0903,-0.0873 3.6099,-0.40637 0.3121,-0.19165 0.7134,-0.58751 0.8918,-0.87967 0.3065,-0.5022 0.3268,-0.86112 0.372,-6.5671 l 0.048,-6.03587 5.9513,0.0339 5.9513,0.0339 v 7.52247 c 0,8.29381 -0.065,9.07486 -0.9305,11.25298 -1.1341,2.8536 -2.7892,4.17782 -6.2033,4.96323 -0.9163,0.21079 -1.963,0.25629 -5.4317,0.2361 -2.3632,-0.0137 -4.9533,-0.0839 -5.7559,-0.15599 l -1.4593,-0.13098 -0.043,-4.90433 -0.043,-4.90432 3.0424,-0.0579 z m 56.6699,16.8447 c 50.7832,0.0134 63.2756,0.0732 61.1669,0.29299 l -0.3243,0.0338 0.3243,0.13756 c 0.2714,0.1151 0.2317,0.1439 -0.2432,0.17643 -0.3757,0.0257 -0.2112,0.0743 0.4864,0.14368 l 1.0539,0.1048 -1.0539,0.0462 c -0.5796,0.0253 -0.9262,0.0791 -0.7701,0.11939 0.2417,0.0623 0.2837,0.2715 0.2837,1.41127 0,1.33687 4e-4,1.33815 0.4459,1.40476 0.3131,0.0469 0.2406,0.0738 -0.2432,0.0907 -0.379,0.0132 -0.6891,0.096 -0.6891,0.18404 0,0.10642 -20.1323,0.16005 -60.0725,0.16005 h -60.0725 v -2.16071 -2.16071 z m -45.7638,-46.27108 h 5.9992 v 4.8816 4.88162 h -5.9992 -5.9991 v -4.88162 -4.8816 z m 12.0984,18.00594 c 0.4267,-2.74566 1.1858,-5.18604 2.2902,-7.36243 0.4021,-0.79227 0.779,-1.47649 0.8376,-1.5205 0.059,-0.0441 0.3596,-0.47541 0.6688,-0.95865 0.6245,-0.97602 2.0489,-2.73206 2.3772,-2.93059 0.1165,-0.0704 0.2117,-0.19355 0.2117,-0.27368 0,-0.21222 1.5002,-1.56418 2.6724,-2.40822 1.2351,-0.88946 2.2408,-1.38868 4.4617,-2.21492 2.5918,-0.96422 4.1118,-1.19315 7.2152,-1.08666 2.2505,0.0772 2.8091,0.15243 4.2156,0.56763 0.8918,0.26323 1.974,0.62796 2.405,0.8105 0.431,0.18254 0.8606,0.33189 0.9547,0.33189 0.094,0 0.7609,0.34213 1.482,0.76026 2.8737,1.66651 6.7919,6.11485 8.3028,9.42628 2.367,5.18738 2.6651,10.39725 0.8705,15.20943 -0.7548,2.02403 -1.2997,3.17579 -2.1779,4.60398 -1.0147,1.64997 -1.0967,1.74608 -3.5612,4.17307 -2.8261,2.78313 -4.8538,3.96339 -8.5396,4.97073 -1.8785,0.5134 -5.5699,0.70742 -7.5606,0.39739 -2.5886,-0.40313 -6.0355,-1.8571 -8.1636,-3.44352 -1.0992,-0.81944 -2.577,-2.10985 -2.577,-2.25028 0,-0.0426 -0.3709,-0.45515 -0.8242,-0.91701 -2.1567,-2.19738 -4.3782,-6.49712 -5.1886,-10.04278 -0.3024,-1.32291 -0.5272,-4.84736 -0.3727,-5.84192 z m 11.4734,5.06115 c 0.582,2.26353 1.7349,4.19807 3.5181,5.90326 1.8035,1.72457 4.674,2.36728 7.1449,1.59976 2.7216,-0.84539 5.4153,-4.02492 6.3052,-7.44249 0.5102,-1.95898 0.4731,-4.81748 -0.087,-6.71625 -0.7955,-2.69647 -2.2144,-4.80451 -4.1849,-6.21721 -0.9025,-0.64705 -1.3185,-0.83239 -2.27,-1.01152 -2.0385,-0.38377 -4.1237,-0.17482 -5.5814,0.55926 -1.2812,0.64523 -2.9072,2.47064 -3.8404,4.31142 -1.4089,2.77924 -1.7713,6.03121 -1.0045,9.01377 z m 33.7126,-22.99718 c 0.1075,-0.0407 2.8135,-0.0551 6.0133,-0.0319 l 5.8178,0.0421 0.018,5.36176 c 0.017,5.06542 0.038,5.4136 0.3673,6.29939 0.8472,2.27724 3.5973,3.52518 6.0094,2.72693 1.2395,-0.41018 2.076,-1.13039 2.6761,-2.30409 l 0.5318,-1.04034 0.048,-5.56185 0.048,-5.56182 h 6.0044 6.0044 l -0.065,6.28206 c -0.061,5.84609 -0.09,6.37094 -0.4192,7.5625 -0.6701,2.42345 -1.7404,4.54204 -3.1273,6.19075 -0.3465,0.41192 -0.6301,0.81883 -0.6301,0.90424 0,0.2087 -1.5179,1.56608 -2.8643,2.56144 -1.141,0.84347 -2.7639,1.69793 -3.5606,1.87465 -0.2563,0.0568 -1.0861,0.29453 -1.8441,0.52819 -1.277,0.39364 -1.5926,0.42484 -4.2967,0.42484 -2.7164,0 -3.0308,-0.0314 -4.5399,-0.45407 -2.3888,-0.66897 -3.1696,-1.00312 -4.7588,-2.03661 -1.8014,-1.1715 -3.3173,-2.67482 -4.5783,-4.54049 -1.7802,-2.63371 -2.5253,-4.58908 -2.9013,-7.61366 -0.2454,-1.97365 -0.2074,-11.51788 0.046,-11.61393 z m 16.7321,29.53986 h 9.8094 v 5.04165 5.04167 h -9.8094 -9.8094 v -5.04167 -5.04165 z m 16.7814,-37.29231 c 0.089,0 0.1621,-0.2783 0.1621,-0.61845 0,-0.61442 0.01,-0.61913 0.7523,-0.72025 0.4137,-0.056 17.031,-0.10189 36.9271,-0.10204 l 36.175,-2.7e-4 -0.049,2.16099 -0.049,2.16097 h -36.7836 c -20.2309,0 -36.8989,-0.0438 -37.0399,-0.0972 -0.2057,-0.0778 -0.2565,-0.36319 -0.2565,-1.44047 0,-0.78885 0.067,-1.34333 0.1621,-1.34333 z m 16.5382,24.16797 h 12.4847 v 4.96164 4.96165 h -12.4847 -12.4847 v -4.96165 -4.96164 z m 22.3752,-16.48543 h 5.9991 v 4.8816 4.88162 h -5.9991 -5.9992 v -4.88162 -4.8816 z m 0,14.8849 h 5.9991 v 12.64418 12.64416 h -5.9991 -5.9992 v -12.64416 -12.64418 z m 23.9154,-14.8849 h 12.5658 v 4.8816 4.88162 h -12.5658 -12.5657 v -4.88162 -4.8816 z m -10.4778,15.6173 c 0.078,-0.0477 2.7357,-0.0845 5.9057,-0.0817 l 5.7635,0.005 0.053,5.79413 c 0.074,8.12614 -0.2597,7.68265 5.8493,7.76953 l 3.8508,0.0548 v 5.086 5.08599 l -1.4297,0.181 c -2.1584,0.27324 -9.0233,0.2324 -10.8793,-0.0647 -3.1909,-0.51085 -5.2624,-1.49435 -6.6478,-3.15623 -1.4378,-1.72481 -2.1207,-3.48262 -2.4404,-6.28127 -0.2014,-1.76273 -0.2232,-14.27174 -0.025,-14.39259 z m 30.0963,-20.38937 c 0.3026,-1.06226 0.8999,-2.08154 1.5597,-2.66184 2.7174,-2.39014 5.9929,-2.64285 8.6805,-0.66974 1.2609,0.9257 1.5746,1.28517 2.1139,2.42225 0.4092,0.86267 0.455,1.12996 0.4524,2.64039 0,1.51015 -0.05,1.78266 -0.4711,2.68752 -0.9106,1.9586 -3.2071,3.49893 -5.4612,3.66299 -2.1004,0.15286 -3.7035,-0.46488 -5.3594,-2.06516 -1.4774,-1.4277 -2.1083,-3.93353 -1.5148,-6.01641 z m 1.181,4.13186 c 0.5473,1.29139 2.2439,2.56064 3.992,2.98648 1.7497,0.42622 3.0778,0.0689 5.0707,-1.36413 0.4774,-0.34327 0.8348,-0.80792 1.2114,-1.57483 0.4752,-0.96791 0.5346,-1.23965 0.5388,-2.46445 0,-1.26208 -0.043,-1.46792 -0.5627,-2.47465 -0.4599,-0.8898 -0.752,-1.2272 -1.5403,-1.77886 -0.5351,-0.37444 -1.3377,-0.80402 -1.7836,-0.95465 -2.7365,-0.92443 -6.0256,0.5636 -7.1254,3.22363 -0.4177,1.01024 -0.3197,3.17753 0.1991,4.40146 z m 4.4431,-6.24216 c 1.2204,5e-5 2.406,0.0704 2.6347,0.15616 0.9804,0.36795 1.4232,2.23162 0.7354,3.09483 -0.1811,0.22721 -0.5788,0.5022 -0.8838,0.61108 l -0.5546,0.19796 0.5565,0.6081 c 0.3061,0.33446 0.7837,1.00548 1.0614,1.49119 0.2777,0.4857 0.5709,0.92335 0.6516,0.97256 0.3479,0.21226 0.096,0.39007 -0.5425,0.38233 l -0.6891,-0.009 -0.9728,-1.52548 c -1.04,-1.63082 -1.2926,-1.81889 -2.4426,-1.81889 h -0.7191 v 1.6907 1.69069 l -0.489,-0.0501 -0.4891,-0.0502 -0.038,-3.72133 -0.038,-3.72133 z m 0.2725,3.20115 c 1.2086,0 1.5054,-0.0528 1.8646,-0.33172 0.8908,-0.69174 0.385,-1.80672 -0.8988,-1.98116 -0.5376,-0.073 -2.0652,-0.0347 -2.3627,0.0593 -0.022,0.007 -0.041,0.51696 -0.041,1.13317 v 1.12037 z" id="path31" inkscape:connector-curvature="0"/>
    <flowRoot xml:space="preserve" id="flowRoot79" style="font-style:normal;font-variant:normal;font-weight:normal;font-stretch:normal;font-size:42.66666794px;line-height:1.25;font-family:Calibri;-inkscape-font-specification:Calibri;font-variant-ligatures:normal;font-variant-caps:normal;font-variant-numeric:normal;font-feature-settings:normal;text-align:start;letter-spacing:0px;word-spacing:0px;writing-mode:lr-tb;text-anchor:start;fill:#000000;fill-opacity:1;stroke:none" transform="matrix(0.26458333,0,0,0.26458333,-0.31582593,-402.81107)"><flowRegion id="flowRegion81"><rect id="rect83" width="578.57141" height="342.85718" x="34.285713" y="2400.1462"/></flowRegion><flowPara id="flowPara85"/></flowRoot>    <text xml:space="preserve" style="font-style:normal;font-variant:normal;font-weight:normal;font-stretch:normal;font-size:52.17420197px;line-height:1.25;font-family:Calibri;-inkscape-font-specification:Calibri;font-variant-ligatures:normal;font-variant-caps:normal;font-variant-numeric:normal;font-feature-settings:normal;text-align:start;letter-spacing:0px;word-spacing:0px;writing-mode:lr-tb;text-anchor:start;fill:#000000;fill-opacity:1;stroke:none;stroke-width:1.2228328" x="78.376427" y="284.40955" id="text89"><tspan sodipodi:role="line" id="tspan87" x="78.376427" y="284.40955" style="fill:#000000;stroke-width:1.2228328">GND</tspan></text>
    <text id="text101" y="284.71527" x="196.30501" style="font-style:normal;font-variant:normal;font-weight:normal;font-stretch:normal;font-size:52.17420197px;line-height:1.25;font-family:Calibri;-inkscape-font-specification:Calibri;font-variant-ligatures:normal;font-variant-caps:normal;font-variant-numeric:normal;font-feature-settings:normal;text-align:start;letter-spacing:0px;word-spacing:0px;writing-mode:lr-tb;text-anchor:start;fill:#000000;fill-opacity:1;stroke:none;stroke-width:1.2228328" xml:space="preserve"><tspan style="fill:#000000;stroke-width:1.2228328" y="284.71527" x="196.30501" sodipodi:role="line" id="tspan103">+V</tspan></text>
    <text xml:space="preserve" style="font-style:normal;font-variant:normal;font-weight:normal;font-stretch:normal;font-size:52.17420197px;line-height:1.25;font-family:Calibri;-inkscape-font-specification:Calibri;font-variant-ligatures:normal;font-variant-caps:normal;font-variant-numeric:normal;font-feature-settings:normal;text-align:start;letter-spacing:0px;word-spacing:0px;writing-mode:lr-tb;text-anchor:start;fill:#000000;fill-opacity:1;stroke:none;stroke-width:1.2228328" x="265.09665" y="284.71527" id="text109"><tspan id="tspan107" sodipodi:role="line" x="265.09665" y="284.71527" style="fill:#000000;stroke-width:1.2228328">Signal</tspan></text>
    <text xml:space="preserve" style="font-style:normal;font-variant:normal;font-weight:normal;font-stretch:normal;font-size:58.99055099px;line-height:1.25;font-family:Calibri;-inkscape-font-specification:Calibri;font-variant-ligatures:normal;font-variant-caps:normal;font-variant-numeric:normal;font-feature-settings:normal;text-align:start;letter-spacing:0px;word-spacing:0px;writing-mode:lr-tb;text-anchor:start;fill:#ffffff;fill-opacity:1;stroke:none;stroke-width:1.38259101" x="123.43571" y="442.78918" id="text91" transform="rotate(-90)"><tspan sodipodi:role="line" id="tspan89" x="123.43571" y="442.78918" style="fill:#ffffff;stroke-width:1.38259101">KY-001</tspan></text>
    <text xml:space="preserve" style="font-style:normal;font-variant:normal;font-weight:normal;font-stretch:normal;font-size:69.328125px;line-height:1.25;font-family:Calibri;-inkscape-font-specification:Calibri;font-variant-ligatures:normal;font-variant-caps:normal;font-variant-numeric:normal;font-feature-settings:normal;text-align:start;letter-spacing:0px;word-spacing:0px;writing-mode:lr-tb;text-anchor:start;fill:#ffffff;fill-opacity:1;stroke:none;stroke-width:1.62487781" x="365.76474" y="114.1003" id="text95" transform="scale(1.002008,0.99799602)"><tspan sodipodi:role="line" id="tspan93" x="365.76474" y="114.1003" style="fill:#ffffff;stroke-width:1.62487781">S</tspan></text>
    <text xml:space="preserve" style="font-style:normal;font-variant:normal;font-weight:normal;font-stretch:normal;font-size:104.97154236px;line-height:1.25;font-family:Calibri;-inkscape-font-specification:Calibri;font-variant-ligatures:normal;font-variant-caps:normal;font-variant-numeric:normal;font-feature-settings:normal;text-align:start;letter-spacing:0px;word-spacing:0px;writing-mode:lr-tb;text-anchor:start;fill:#ffffff;fill-opacity:1;stroke:none;stroke-width:2.4602704" x="17.510124" y="188.162" id="text99" transform="scale(1.7555055,0.5696365)"><tspan sodipodi:role="line" id="tspan97" x="17.510124" y="188.162" style="fill:#ffffff;stroke-width:2.4602704">-</tspan></text>
  </g>
</svg>
